HIERARCHY
ROOT hip
{
	OFFSET 0.000000 0.000000 0.000000 
	CHANNELS 6 Xposition Yposition Zposition Xrotation Zrotation Yrotation
	JOINT abdomen
	{
		OFFSET 0.000000 3.402643 0.000000 
		CHANNELS 3 Xrotation Zrotation Yrotation
		JOINT chest
		{
			OFFSET 0.000000 8.438565 -0.680529 
			CHANNELS 3 Xrotation Zrotation Yrotation
			JOINT neck
			{
				OFFSET 0.000000 10.207942 -0.272212 
				CHANNELS 3 Xrotation Zrotation Yrotation
				JOINT head
				{
					OFFSET 0.000000 3.130431 0.000000 
					CHANNELS 3 Xrotation Zrotation Yrotation
					End Site
					{
						OFFSET 0.000000 3.130435 0.000000 
					}
				}
			}
			JOINT lCollar
			{
				OFFSET 3.470700 6.669187 -0.816635 
				CHANNELS 3 Yrotation Zrotation Xrotation
				JOINT lShldr
				{
					OFFSET 3.198488 0.000000 0.000000 
					CHANNELS 3 Zrotation Yrotation Xrotation
					JOINT lForeArm
					{
						OFFSET 10.139888 0.000000 0.000000 
						CHANNELS 3 Yrotation Zrotation Xrotation
						JOINT lHand
						{
							OFFSET 8.370511 0.000000 0.000000 
							CHANNELS 3 Zrotation Yrotation Xrotation
							End Site
							{
								OFFSET 4.083176 0.000000 0.000000 
							}
						}
					}
				}
			}
			JOINT rCollar
			{
				OFFSET -3.470700 6.669187 -0.816635 
				CHANNELS 3 Yrotation Zrotation Xrotation
				JOINT rShldr
				{
					OFFSET -3.198488 0.000000 0.000000 
					CHANNELS 3 Zrotation Yrotation Xrotation
					JOINT rForeArm
					{
						OFFSET -10.139888 0.000000 0.000000 
						CHANNELS 3 Yrotation Zrotation Xrotation
						JOINT rHand
						{
							OFFSET -8.370511 0.000000 0.000000 
							CHANNELS 3 Zrotation Yrotation Xrotation
							End Site
							{
								OFFSET -4.083176 0.000000 0.000000 
							}
						}
					}
				}
			}
		}
	}
	JOINT lThigh
	{
		OFFSET 5.308129 -1.633274 1.361059 
		CHANNELS 3 Xrotation Zrotation Yrotation
		JOINT lShin
		{
			OFFSET -2.041588 -20.007561 0.000000 
			CHANNELS 3 Xrotation Zrotation Yrotation
			JOINT lFoot
			{
				OFFSET 0.000000 -19.190928 -1.224953 
				CHANNELS 3 Xrotation Yrotation Zrotation
				End Site
				{
					OFFSET 0.000000 -2.449906 4.627600 
				}
			}
		}
	}
	JOINT rThigh
	{
		OFFSET -5.308129 -1.633274 1.361059 
		CHANNELS 3 Xrotation Zrotation Yrotation
		JOINT rShin
		{
			OFFSET 2.041588 -20.007561 0.000000 
			CHANNELS 3 Xrotation Zrotation Yrotation
			JOINT rFoot
			{
				OFFSET 0.000000 -19.190928 -1.224953 
				CHANNELS 3 Xrotation Yrotation Zrotation
				End Site
				{
					OFFSET 0.000000 -2.449906 4.627600 
				}
			}
		}
	}
}
MOTION
Frames: 18
Frame Time: 0.033333
5.243154 47.957893 41.380386 25.058594 -11.269530 29.716801 10.370376 -8.712459 -6.345483 -39.140629 13.603516 17.558594 -14.491139 -12.891555 -7.484652 29.101564 13.378906 -23.161806 2.000000 -2.000000 0.000000 -37.500004 9.248047 -35.029293 -40.162254 -0.511196 2.508615 26.309036 -2.029325 3.839785 -2.000000 2.000000 0.000000 33.710934 2.031250 16.533201 72.729034 0.226548 3.009814 -36.223228 1.528298 17.767761 -7.521343 4.126917 -2.804249 20.904472 -3.652208 -1.727738 -18.073511 1.036966 -1.640196 -53.598812 -9.501069 -6.681162 30.505913 3.290704 2.229477 -16.286539 -1.527694 2.878293 
5.373845 48.386608 43.206985 23.544922 -12.275390 32.761597 10.370376 -8.712459 -6.345483 -39.824219 14.248047 15.732422 -14.082788 -12.573480 -7.800800 29.638674 13.056640 -23.474358 2.000000 -2.000000 0.000000 -37.978516 7.783204 -34.373676 -39.312855 -0.521531 2.499458 25.501966 -2.196005 3.551220 -2.000000 2.000000 0.000000 33.281250 -0.341797 18.037050 73.197571 0.216211 3.018971 -36.119850 1.649083 17.968275 -6.516880 4.790334 -1.397659 22.943930 -3.593876 -1.824952 -13.005761 1.701687 -3.205909 -49.695816 -9.150073 -9.245788 30.485676 3.300437 2.220823 -17.952343 -1.423566 2.586286 
5.582473 48.770054 44.910725 22.470703 -12.597657 36.513668 10.370376 -8.712459 -6.345483 -39.101566 13.818360 13.994143 -14.365479 -12.744803 -8.022038 29.511721 13.271483 -24.001667 2.000000 -2.000000 0.000000 -38.369141 5.195313 -34.462894 -37.536160 -0.542790 2.471400 24.195215 -2.325012 2.987241 -2.000000 2.000000 0.000000 32.421875 -1.474609 18.173826 73.207344 0.216211 3.018971 -35.803314 1.825945 17.944551 -6.013257 4.158484 0.208872 24.454136 -3.525257 -1.929831 -8.029439 2.765529 -5.613290 -46.293484 -9.451303 -10.453830 30.603868 3.300491 2.219464 -19.695169 -1.317806 2.350855 
5.722352 49.005909 46.510208 21.103518 -13.291016 39.987991 10.370376 -8.712459 -6.345483 -39.501953 13.378908 12.053041 -12.885049 -12.011008 -8.534573 29.218750 13.037109 -24.509520 2.000000 -2.000000 0.000000 -37.294922 3.652344 -32.714844 -36.218006 -0.562874 2.462832 23.218628 -2.366899 2.601076 -2.000000 2.000000 0.000000 32.460938 -2.089844 18.866833 71.410881 0.227138 3.000069 -35.056366 1.997539 17.063282 -5.964722 4.080480 2.666573 25.777596 -3.516164 -1.993160 -5.806397 3.299301 -6.767202 -43.376976 -8.378310 -9.979159 30.724342 3.280290 2.203826 -21.624743 -1.148170 2.019178 
5.816739 49.114929 47.913647 19.384766 -14.013673 42.861328 10.370376 -8.712459 -6.345483 -39.863281 13.232422 10.361330 -10.873293 -10.954661 -8.936410 29.042969 13.134764 -24.843752 2.000000 -2.000000 0.000000 -35.996094 2.343750 -30.859375 -35.739704 -0.573209 2.453675 22.808474 -2.385782 2.457553 -2.000000 2.000000 0.000000 32.041016 -2.734375 20.380859 69.927147 0.238654 2.971421 -34.152298 2.154209 16.365496 -6.107975 3.999672 4.923967 27.203127 -3.467599 -2.045920 -6.806648 2.940918 -6.054841 -40.609554 -7.234422 -11.605349 30.990683 3.270900 2.210450 -22.880144 -0.964996 1.609522 
5.929504 49.199448 49.091564 17.685547 -14.306641 45.339386 10.370376 -8.712459 -6.345483 -39.550781 13.701173 9.006220 -8.819158 -10.736021 -8.860362 28.789063 13.505859 -24.880533 2.000000 -2.000000 0.000000 -35.957027 0.937500 -29.589684 -35.778763 -0.573209 2.453675 22.730093 -2.377738 2.471611 -2.000000 2.000000 0.000000 31.181641 -2.470517 20.935755 67.808655 0.240423 2.942184 -33.049557 2.218725 15.404860 -6.285335 3.200603 7.153847 28.545485 -3.432947 -2.124754 -8.759309 2.486317 -4.933292 -38.249397 -6.610293 -14.149226 31.818487 3.231686 2.268727 -23.400406 -0.860494 1.345364 
6.005172 49.263435 50.121655 16.054688 -14.189452 47.519527 10.370376 -8.712459 -6.345483 -38.398438 13.769531 8.349610 -7.190070 -9.997408 -8.875096 28.417971 13.554688 -24.743807 2.000000 -2.000000 0.000000 -35.976563 -1.113281 -28.984293 -36.003155 -0.572622 2.463421 22.837570 -2.375373 2.543835 -2.000000 2.000000 0.000000 30.771484 -2.177735 19.912109 66.002861 0.252528 2.903791 -32.119827 2.188956 14.601995 -6.409878 1.930222 9.179408 29.572027 -3.384652 -2.215770 -10.450872 1.948924 -3.724226 -36.227402 -6.278033 -16.713886 33.109291 3.163376 2.351127 -23.489252 -0.803224 1.268149 
6.044199 49.339100 51.002003 14.501953 -13.759766 50.134399 10.370376 -8.712459 -6.345483 -36.699223 13.632813 7.568360 -5.625785 -9.385291 -8.809943 27.929689 13.525391 -24.587563 2.000000 -2.000000 0.000000 -36.005863 -2.832031 -27.763672 -36.540489 -0.563461 2.453086 23.120922 -2.369085 2.723613 -2.000000 2.000000 0.000000 30.292969 -2.236328 18.310549 65.026512 0.262865 2.894634 -31.413925 2.122424 14.237700 -6.597233 0.321237 10.237324 30.278561 -3.404632 -2.242043 -11.996091 1.348964 -2.398142 -34.440186 -6.355866 -18.735731 34.680946 3.124374 2.460905 -23.489765 -0.786892 1.187885 
5.990313 49.353966 51.767879 12.617188 -13.134766 53.398438 10.370376 -8.712459 -6.345483 -34.609379 13.632812 6.250000 -4.086253 -8.834520 -8.627017 27.539064 13.300780 -24.196972 2.000000 -2.000000 0.000000 -35.791016 -3.974609 -25.391300 -37.116669 -0.553714 2.452497 23.443348 -2.361837 2.891521 -2.000000 2.000000 0.000000 29.853518 -2.861328 17.108891 64.987457 0.262865 2.894634 -30.862350 1.982518 14.294961 -6.836604 -1.231933 11.117411 30.950834 -3.350746 -2.305867 -13.526694 0.813229 -1.216514 -32.809788 -6.141188 -19.907602 36.598370 3.046586 2.553651 -23.930941 -0.671091 1.022341 
5.816967 49.250500 52.463760 10.488281 -12.734375 56.472458 10.370376 -8.712459 -6.345483 -32.646488 13.828125 4.990235 -2.455286 -8.079488 -8.464600 26.992188 13.349608 -23.916018 2.000000 -2.000000 0.000000 -35.058594 -5.136719 -22.852436 -37.545925 -0.542790 2.471399 23.706928 -2.346069 3.033369 -2.000000 2.000000 0.000000 29.599607 -3.173828 15.878904 64.880028 0.262865 2.894634 -30.556749 1.893797 14.290979 -7.538361 -2.021149 12.406451 31.540154 -3.364219 -2.312629 -15.017464 0.373034 -0.283088 -31.685736 -5.661834 -21.306097 38.906120 2.958833 2.679049 -23.608360 -0.691483 1.055580 
5.574984 49.213516 52.979374 8.769531 -12.089843 59.482422 10.370376 -8.712459 -6.345483 -30.722658 13.974609 3.701171 -0.850166 -7.553292 -8.246964 26.054689 13.554688 -23.767246 2.000000 -2.000000 0.000000 -34.589844 -6.152344 -20.752998 -37.994923 -0.542203 2.481145 23.941416 -2.340676 3.167075 -2.000000 2.000000 0.000000 29.003906 -3.359375 15.253334 65.651520 0.262865 2.894634 -30.545269 1.835514 14.682423 -8.866627 -2.831980 13.719233 32.193867 -3.305737 -2.334380 -16.443834 0.110405 0.304267 -31.209734 -5.848948 -22.800434 41.537636 2.821975 2.808586 -22.403551 -0.851543 1.478597 
5.204469 49.252316 53.393337 7.285156 -11.367187 62.011719 10.370376 -8.712459 -6.345483 -27.285158 14.267579 3.144531 -1.616821 -7.574099 -8.056297 25.498049 13.886719 -23.552345 2.000000 -2.000000 0.000000 -34.121090 -7.509767 -19.825497 -39.117760 -0.531867 2.490301 24.488081 -2.308365 3.537736 -2.000000 2.000000 0.000000 28.398436 -3.242188 13.173704 67.847710 0.250171 2.942773 -30.887028 1.825471 15.729315 -10.362992 -3.281693 14.599497 33.739429 -3.239218 -2.445965 -16.404615 0.107030 0.335462 -31.224882 -6.129362 -23.932688 44.372242 2.701922 2.925464 -20.235796 -1.136457 2.244082 
4.682276 49.433720 53.666626 5.908203 -10.566406 64.150391 10.370376 -8.712459 -6.345483 -23.916016 14.785155 3.117727 -2.685556 -8.039084 -7.796618 25.234377 14.414063 -23.327650 2.000000 -2.000000 0.000000 -33.554688 -8.681641 -18.868662 -40.132954 -0.511196 2.508615 25.025183 -2.285769 3.879752 -2.000000 2.000000 0.000000 27.519529 -3.642578 11.572265 71.293915 0.227727 2.990323 -31.485004 1.885809 17.358698 -11.650588 -3.223455 13.870268 35.853699 -3.156207 -2.582887 -13.484485 0.143289 0.249573 -32.506828 -6.706975 -23.698372 48.154800 2.480031 3.122224 -15.651409 -1.822744 3.822139 
4.060135 49.365993 53.862888 4.882813 -10.136719 65.408432 10.370376 -8.712459 -6.345483 -21.406252 15.458984 3.261719 -3.783880 -8.601059 -7.196394 25.175783 14.814453 -22.448677 2.000000 -2.000000 0.000000 -32.812500 -8.808595 -18.341339 -41.060474 -0.500860 2.517771 25.533197 -2.273386 4.194167 -2.000000 2.000000 0.000000 26.376953 -3.173828 9.697265 74.105133 0.224189 3.048796 -32.144936 2.051404 18.634069 -12.109458 -2.998273 11.970942 36.877758 -3.103393 -2.610796 -14.187813 0.242323 0.007504 -35.804932 -7.799080 -22.570564 53.440430 2.167781 3.371516 -9.574049 -2.606978 5.593772 
3.428464 48.974377 54.030563 5.019531 -10.244141 65.488274 10.370376 -8.712459 -6.345483 -19.726563 15.195313 4.121094 -5.627285 -8.816257 -6.588583 25.507814 14.980468 -21.188887 2.000000 -2.000000 0.000000 -31.660156 -8.330078 -18.740234 -42.339348 -0.480189 2.536084 26.216055 -2.217283 4.645767 -2.000000 2.000000 0.000000 25.537109 -1.806641 7.236329 76.633797 0.222420 3.078033 -32.766296 2.227596 19.794077 -11.964357 -3.320275 11.220938 36.441914 -3.144208 -2.640607 -18.523371 0.425621 -0.399697 -41.009445 -9.683911 -20.271870 58.731937 1.853965 3.553191 -3.181705 -2.920847 6.337803 
2.853518 48.508446 54.246796 5.664063 -11.015625 65.322266 10.370376 -8.712459 -6.345483 -19.335938 14.082033 5.322265 -7.162897 -8.175026 -6.330700 25.644533 14.990233 -20.261148 2.000000 -2.000000 0.000000 -30.068357 -8.056641 -20.030666 -43.569386 -0.469265 2.554986 26.889078 -2.160999 5.078561 -2.000000 2.000000 0.000000 25.849611 -0.634766 4.199111 78.117317 0.210312 3.116426 -33.377155 2.374477 20.447340 -12.573521 -3.632333 10.708329 35.743420 -3.188704 -2.584956 -22.360634 0.532259 -0.605222 -46.253803 -11.315313 -17.323044 60.707157 1.717302 3.596642 -1.487025 -1.750550 3.781857 
2.379313 47.983189 54.478676 6.416016 -12.080077 65.009766 10.370376 -8.712459 -6.345483 -19.687502 13.505859 6.738281 -8.739260 -8.442291 -5.874509 26.630861 15.556641 -19.430979 2.000000 -2.000000 0.000000 -29.365234 -7.617188 -21.114574 -44.750805 -0.468677 2.564732 27.571800 -2.104036 5.501279 -2.000000 2.000000 0.000000 26.171877 -0.292969 1.171825 79.356712 0.207951 3.155408 -34.025982 2.480729 20.981262 -12.825522 -4.267200 10.236349 34.740803 -3.222174 -2.522764 -27.644299 0.517752 -0.610587 -50.818787 -12.167258 -14.208807 58.418026 1.874946 3.571537 -3.137303 -0.522487 0.893495 
2.041809 47.689930 54.758778 6.787109 -13.164063 64.441132 10.370376 -8.712459 -6.345483 -19.755861 13.964845 8.281249 -10.365699 -8.862113 -5.512335 27.128904 14.873046 -18.476563 2.000000 -2.000000 0.000000 -29.804688 -6.953126 -23.115234 -45.717388 -0.458341 2.573888 28.136724 -2.030293 5.871787 -2.000000 2.000000 0.000000 25.937500 0.410156 -1.875000 79.493851 0.209132 3.135917 -34.701027 2.488051 20.977274 -13.118492 -4.491531 9.054214 33.312393 -3.300240 -2.432858 -30.438387 0.388895 -0.334849 -53.548599 -11.863115 -11.707359 52.736595 2.224228 3.320008 -4.704324 -0.330550 0.484865 
